<mxfile host="Electron" agent="Mozilla/5.0 (Windows NT 10.0; Win64; x64) AppleWebKit/537.36 (KHTML, like Gecko) draw.io/26.0.15 Chrome/132.0.6834.196 Electron/34.2.0 Safari/537.36" version="26.0.15">
  <diagram id="process-2-medical-data" name="Medical Data Management">
    <mxGraphModel dx="1050" dy="669" grid="1" gridSize="10" guides="1" tooltips="1" connect="1" arrows="1" fold="1" page="1" pageScale="1" pageWidth="827" pageHeight="1169" math="0" shadow="0">
      <root>
        <mxCell id="0" />
        <mxCell id="1" parent="0" />
        <mxCell id="2" value="Пациент" style="html=1;dashed=0;whitespace=wrap;shape=mxgraph.dfd.externalEntity;fontSize=14;" parent="1" vertex="1">
          <mxGeometry x="30" y="80" width="100" height="100" as="geometry" />
        </mxCell>
        <mxCell id="3" value="Врач" style="html=1;dashed=0;whitespace=wrap;shape=mxgraph.dfd.externalEntity;fontSize=14;" parent="1" vertex="1">
          <mxGeometry x="320" y="200" width="100" height="100" as="geometry" />
        </mxCell>
        <mxCell id="4" value="Сотрудник ресепшена" style="html=1;dashed=0;whitespace=wrap;shape=mxgraph.dfd.externalEntity;fontSize=14;" parent="1" vertex="1">
          <mxGeometry x="640" y="200" width="100" height="100" as="geometry" />
        </mxCell>
        <mxCell id="5" value="2.1&#xa;Сбор медицинской&#xa;информации" style="shape=ellipse;html=1;dashed=0;whitespace=wrap;perimeter=ellipsePerimeter;fontSize=14;" parent="1" vertex="1">
          <mxGeometry x="140" y="380" width="120" height="120" as="geometry" />
        </mxCell>
        <mxCell id="6" value="2.2&#xa;Создание&#xa;медицинских&#xa;записей" style="shape=ellipse;html=1;dashed=0;whitespace=wrap;perimeter=ellipsePerimeter;fontSize=14;" parent="1" vertex="1">
          <mxGeometry x="390" y="370" width="120" height="120" as="geometry" />
        </mxCell>
        <mxCell id="7" value="2.3&#xa;Доступ к&#xa;медицинским&#xa;данным" style="shape=ellipse;html=1;dashed=0;whitespace=wrap;perimeter=ellipsePerimeter;fontSize=14;" parent="1" vertex="1">
          <mxGeometry x="630" y="380" width="120" height="120" as="geometry" />
        </mxCell>
        <mxCell id="8" value="Папка пациента" style="html=1;dashed=0;whitespace=wrap;shape=mxgraph.dfd.dataStoreID;align=left;spacingLeft=30;fontSize=14;" parent="1" vertex="1">
          <mxGeometry x="380" y="580" width="140" height="60" as="geometry" />
        </mxCell>
        <mxCell id="9" value="Excel-файлы" style="html=1;dashed=0;whitespace=wrap;shape=mxgraph.dfd.dataStoreID;align=left;spacingLeft=30;fontSize=14;" parent="1" vertex="1">
          <mxGeometry x="280" y="660" width="140" height="60" as="geometry" />
        </mxCell>
        <mxCell id="10" value="PDF-файлы" style="html=1;dashed=0;whitespace=wrap;shape=mxgraph.dfd.dataStoreID;align=left;spacingLeft=30;fontSize=14;" parent="1" vertex="1">
          <mxGeometry x="380" y="730" width="140" height="60" as="geometry" />
        </mxCell>
        <mxCell id="11" value="JPG-файлы" style="html=1;dashed=0;whitespace=wrap;shape=mxgraph.dfd.dataStoreID;align=left;spacingLeft=30;fontSize=14;" parent="1" vertex="1">
          <mxGeometry x="480" y="660" width="140" height="60" as="geometry" />
        </mxCell>
        <mxCell id="12" value="Медицинская информация (MED-H)" style="html=1;verticalAlign=bottom;endArrow=block;entryX=0;entryY=0.5;exitX=1;exitY=0.5;" parent="1" source="2" target="3" edge="1">
          <mxGeometry width="80" relative="1" as="geometry">
            <mxPoint x="200" y="390" as="sourcePoint" />
            <mxPoint x="280" y="390" as="targetPoint" />
          </mxGeometry>
        </mxCell>
        <mxCell id="13" value="Сбор данных" style="html=1;verticalAlign=bottom;endArrow=block;entryX=0.5;entryY=0;exitX=0.25;exitY=1;" parent="1" source="3" target="5" edge="1">
          <mxGeometry width="80" relative="1" as="geometry">
            <mxPoint x="230" y="330" as="sourcePoint" />
            <mxPoint x="310" y="330" as="targetPoint" />
            <Array as="points">
              <mxPoint x="345" y="350" />
              <mxPoint x="260" y="350" />
            </Array>
          </mxGeometry>
        </mxCell>
        <mxCell id="14" value="Создание записей" style="html=1;verticalAlign=bottom;endArrow=block;entryX=0.5;entryY=0;exitX=0.75;exitY=1;" parent="1" source="3" target="6" edge="1">
          <mxGeometry width="80" relative="1" as="geometry">
            <mxPoint x="380" y="330" as="sourcePoint" />
            <mxPoint x="460" y="330" as="targetPoint" />
            <Array as="points">
              <mxPoint x="395" y="350" />
              <mxPoint x="450" y="350" />
            </Array>
          </mxGeometry>
        </mxCell>
        <mxCell id="15" value="Медицинские данные" style="html=1;verticalAlign=bottom;endArrow=block;entryX=0;entryY=0.5;exitX=1;exitY=0.5;" parent="1" source="5" target="6" edge="1">
          <mxGeometry width="80" relative="1" as="geometry">
            <mxPoint x="330" y="440" as="sourcePoint" />
            <mxPoint x="410" y="440" as="targetPoint" />
          </mxGeometry>
        </mxCell>
        <mxCell id="16" value="Запись данных (MED-H)" style="html=1;verticalAlign=bottom;endArrow=block;entryX=0.5;entryY=0;exitX=0.5;exitY=1;" parent="1" source="6" target="8" edge="1">
          <mxGeometry width="80" relative="1" as="geometry">
            <mxPoint x="380" y="510" as="sourcePoint" />
            <mxPoint x="460" y="510" as="targetPoint" />
          </mxGeometry>
        </mxCell>
        <mxCell id="17" value="" style="html=1;verticalAlign=bottom;endArrow=block;entryX=0.5;entryY=0;exitX=0.5;exitY=1;" parent="1" source="8" target="10" edge="1">
          <mxGeometry width="80" relative="1" as="geometry">
            <mxPoint x="380" y="680" as="sourcePoint" />
            <mxPoint x="460" y="680" as="targetPoint" />
          </mxGeometry>
        </mxCell>
        <mxCell id="18" value="" style="html=1;verticalAlign=bottom;endArrow=block;entryX=0.5;entryY=0;exitX=0.25;exitY=1;" parent="1" source="8" target="9" edge="1">
          <mxGeometry width="80" relative="1" as="geometry">
            <mxPoint x="310" y="650" as="sourcePoint" />
            <mxPoint x="390" y="650" as="targetPoint" />
            <Array as="points">
              <mxPoint x="415" y="650" />
              <mxPoint x="350" y="650" />
            </Array>
          </mxGeometry>
        </mxCell>
        <mxCell id="19" value="" style="html=1;verticalAlign=bottom;endArrow=block;entryX=0.5;entryY=0;exitX=0.75;exitY=1;" parent="1" source="8" target="11" edge="1">
          <mxGeometry width="80" relative="1" as="geometry">
            <mxPoint x="480" y="650" as="sourcePoint" />
            <mxPoint x="560" y="650" as="targetPoint" />
            <Array as="points">
              <mxPoint x="485" y="650" />
              <mxPoint x="550" y="650" />
            </Array>
          </mxGeometry>
        </mxCell>
        <mxCell id="20" value="Просмотр данных" style="html=1;verticalAlign=bottom;endArrow=block;entryX=0.5;entryY=0;exitX=0.5;exitY=1;" parent="1" source="4" target="7" edge="1">
          <mxGeometry width="80" relative="1" as="geometry">
            <mxPoint x="590" y="330" as="sourcePoint" />
            <mxPoint x="670" y="330" as="targetPoint" />
          </mxGeometry>
        </mxCell>
        <mxCell id="21" value="Получение доступа (без аутентификации)" style="html=1;verticalAlign=bottom;endArrow=block;entryX=1;entryY=0.5;exitX=0;exitY=0.75;" parent="1" source="7" target="8" edge="1">
          <mxGeometry x="-0.0667" y="-10" width="80" relative="1" as="geometry">
            <mxPoint x="600" y="580" as="sourcePoint" />
            <mxPoint x="680" y="580" as="targetPoint" />
            <Array as="points">
              <mxPoint x="620" y="560" />
              <mxPoint x="580" y="610" />
            </Array>
            <mxPoint as="offset" />
          </mxGeometry>
        </mxCell>
      </root>
    </mxGraphModel>
  </diagram>
</mxfile>
